<svg width="20" height="24" viewBox="0 0 20 24" fill="none" xmlns="http://www.w3.org/2000/svg">
<g id="ic_file">
<mask id="mask0_668_8315" style="mask-type:alpha" maskUnits="userSpaceOnUse" x="0" y="0" width="20" height="24">
<g id="ic_file_2">
<path d="M6.20964 17.2503C5.72639 17.2503 5.33464 16.8586 5.33464 16.3753C5.33464 15.8921 5.72639 15.5003 6.20964 15.5003L13.793 15.5003C14.2762 15.5003 14.668 15.8921 14.668 16.3753C14.668 16.8586 14.2762 17.2503 13.793 17.2503H6.20964Z" fill="black"/>
<path d="M5.33464 12.8753C5.33464 13.3586 5.72639 13.7503 6.20964 13.7503L13.793 13.7503C14.2762 13.7503 14.668 13.3586 14.668 12.8753C14.668 12.3921 14.2762 12.0003 13.793 12.0003L6.20964 12.0003C5.72639 12.0003 5.33464 12.3921 5.33464 12.8753Z" fill="black"/>
<path d="M6.20964 10.2503C5.72639 10.2503 5.33464 9.85858 5.33464 9.37533C5.33464 8.89208 5.72639 8.50033 6.20964 8.50033H7.95964C8.44289 8.50033 8.83464 8.89208 8.83464 9.37533C8.83464 9.85857 8.44289 10.2503 7.95964 10.2503H6.20964Z" fill="black"/>
<path fill-rule="evenodd" clip-rule="evenodd" d="M4.16797 23.0837C2.23497 23.0837 0.667969 21.5167 0.667969 19.5837L0.667969 4.41699C0.667969 2.484 2.23497 0.916992 4.16797 0.916992L11.168 0.916992C15.6783 0.916992 19.3346 4.57333 19.3346 9.08366L19.3346 19.5837C19.3346 21.5167 17.7676 23.0837 15.8346 23.0837L4.16797 23.0837ZM3.0013 19.5837C3.0013 20.228 3.52364 20.7503 4.16797 20.7503L15.8346 20.7503C16.479 20.7503 17.0013 20.228 17.0013 19.5837V9.08366C17.0013 8.88678 16.9915 8.69219 16.9725 8.50033L12.043 8.50033C11.5597 8.50033 11.168 8.10858 11.168 7.62533L11.168 3.25032L4.16797 3.25033C3.52364 3.25033 3.0013 3.77266 3.0013 4.41699L3.0013 19.5837ZM16.5159 6.75033L12.918 6.75033V3.51738C14.5329 4.0246 15.8452 5.21523 16.5159 6.75033Z" fill="black"/>
</g>
</mask>
<g mask="url(#mask0_668_8315)">
<rect id="&#240;&#159;&#142;&#168; tint" x="-4" y="-2" width="28" height="28" fill="white"/>
</g>
</g>
</svg>
