<svg width="18" height="4" viewBox="0 0 18 4" fill="none" xmlns="http://www.w3.org/2000/svg">
<g id="ic_more_horiz">
<mask id="mask0_511_8628" style="mask-type:alpha" maskUnits="userSpaceOnUse" x="0" y="0" width="18" height="4">
<path id="ic_more_horiz_s" d="M0.834637 2C0.834637 1.51875 1.00964 1.1075 1.35089 0.766249C1.69214 0.424999 2.10339 0.249999 2.58464 0.249999C3.06589 0.249999 3.47714 0.424999 3.81839 0.766249C4.15964 1.1075 4.33464 1.51875 4.33464 2C4.33464 2.48125 4.15964 2.8925 3.81839 3.23375C3.47714 3.575 3.06589 3.75 2.58464 3.75C2.10339 3.75 1.69214 3.575 1.35089 3.23375C1.00964 2.8925 0.834637 2.48125 0.834637 2ZM7.2513 2C7.2513 1.51875 7.4263 1.1075 7.76755 0.76625C8.1088 0.425 8.52005 0.25 9.0013 0.25C9.48255 0.25 9.8938 0.425 10.2351 0.76625C10.5763 1.1075 10.7513 1.51875 10.7513 2C10.7513 2.48125 10.5763 2.8925 10.2351 3.23375C9.8938 3.575 9.48255 3.75 9.0013 3.75C8.52005 3.75 8.1088 3.575 7.76755 3.23375C7.4263 2.8925 7.2513 2.48125 7.2513 2ZM13.668 2C13.668 1.51875 13.843 1.1075 14.1842 0.76625C14.5255 0.425 14.9367 0.25 15.418 0.25C15.8992 0.25 16.3105 0.425 16.6517 0.76625C16.993 1.1075 17.168 1.51875 17.168 2C17.168 2.48125 16.993 2.8925 16.6517 3.23375C16.3105 3.575 15.8992 3.75 15.418 3.75C14.9367 3.75 14.5255 3.575 14.1842 3.23375C13.843 2.8925 13.668 2.48125 13.668 2Z" fill="black"/>
</mask>
<g mask="url(#mask0_511_8628)">
<rect id="&#240;&#159;&#142;&#168; tint" x="-6.55469" y="-13.2964" width="31.1111" height="31.1111" fill="black"/>
</g>
</g>
</svg>
