<svg width="12" height="13" viewBox="0 0 12 13" fill="none" xmlns="http://www.w3.org/2000/svg">
<g id="ic_picture">
<mask id="mask0_926_1195" style="mask-type:alpha" maskUnits="userSpaceOnUse" x="0" y="0" width="12" height="13">
<g id="ic_picture_2">
<path d="M4.00065 5.49967C4.55294 5.49967 5.00065 5.05196 5.00065 4.49967C5.00065 3.94739 4.55294 3.49967 4.00065 3.49967C3.44837 3.49967 3.00065 3.94739 3.00065 4.49967C3.00065 5.05196 3.44837 5.49967 4.00065 5.49967Z" fill="black"/>
<path fill-rule="evenodd" clip-rule="evenodd" d="M0.333984 2.83301C0.333984 1.72844 1.22942 0.833008 2.33398 0.833008H9.66732C10.7719 0.833008 11.6673 1.72844 11.6673 2.83301V10.1663C11.6673 11.2709 10.7719 12.1663 9.66732 12.1663H2.33398C1.22941 12.1663 0.333984 11.2709 0.333984 10.1663V2.83301ZM2.33398 2.16634C1.96579 2.16634 1.66732 2.46482 1.66732 2.83301V10.1663C1.66732 10.5345 1.96579 10.833 2.33398 10.833H4.00884C4.17708 7.4164 6.91737 4.6761 10.334 4.50786V2.83301C10.334 2.46482 10.0355 2.16634 9.66732 2.16634H2.33398ZM9.66732 10.833H5.34423C5.5095 8.153 7.65398 6.00852 10.334 5.84326V10.1663C10.334 10.5345 10.0355 10.833 9.66732 10.833Z" fill="black"/>
</g>
</mask>
<g mask="url(#mask0_926_1195)">
<rect id="&#240;&#159;&#142;&#168; tint" x="-2" y="-1.5" width="16" height="16" fill="white"/>
</g>
</g>
</svg>
