<svg width="16" height="17" viewBox="0 0 16 17" fill="none" xmlns="http://www.w3.org/2000/svg">
<g id="ic_pw">
<mask id="mask0_60_5235" style="mask-type:alpha" maskUnits="userSpaceOnUse" x="0" y="0" width="16" height="17">
<g id="ic_pw_2">
<path d="M8.83301 12.5345V8.78451H7.16634V12.5345H8.83301Z" fill="black"/>
<path fill-rule="evenodd" clip-rule="evenodd" d="M14.2497 4.31185H12.1641C11.9352 2.21486 10.1584 0.583008 8.00045 0.583008C5.84252 0.583008 4.06573 2.21486 3.83679 4.31185H1.74967C0.829199 4.31185 0.0830078 5.05804 0.0830078 5.97852V14.7504C0.0830078 15.6709 0.8292 16.4171 1.74967 16.4171H14.2497C15.1701 16.4171 15.9163 15.6709 15.9163 14.7504V5.97852C15.9163 5.05804 15.1701 4.31185 14.2497 4.31185ZM8.00045 2.24967C9.23625 2.24967 10.2645 3.13856 10.4806 4.31185H5.52032C5.73644 3.13856 6.76464 2.24967 8.00045 2.24967ZM1.74967 5.97852V14.7504L14.2497 14.7504V5.97852L1.74967 5.97852Z" fill="black"/>
</g>
</mask>
<g mask="url(#mask0_60_5235)">
<rect id="&#240;&#159;&#142;&#168; tint" x="-2" y="-1.5" width="20" height="20" fill="black"/>
</g>
</g>
</svg>
