<svg width="14" height="13" viewBox="0 0 14 13" fill="none" xmlns="http://www.w3.org/2000/svg">
<g id="ic_share">
<mask id="mask0_926_1213" style="mask-type:alpha" maskUnits="userSpaceOnUse" x="0" y="0" width="14" height="13">
<path id="ic_share_2" fill-rule="evenodd" clip-rule="evenodd" d="M7.80037 0.885437C8.04737 0.781249 8.33274 0.835138 8.52473 1.02222L13.4659 5.83704C13.5947 5.96252 13.6673 6.1347 13.6673 6.31451C13.6673 6.49431 13.5947 6.66649 13.4659 6.79198L8.52473 11.6068C8.33274 11.7939 8.04737 11.8478 7.80037 11.7436C7.55337 11.6394 7.39281 11.3974 7.39281 11.1293V8.96756C3.4478 9.15434 1.91922 10.9811 1.62154 11.7425C1.50481 12.041 1.19213 12.2142 0.877126 12.1548C0.562122 12.0954 0.333984 11.8202 0.333984 11.4997C0.333984 8.57782 1.61747 6.62207 3.2406 5.40506C4.58834 4.39454 6.15584 3.90115 7.39281 3.74413V1.49969C7.39281 1.23162 7.55337 0.989625 7.80037 0.885437ZM8.72614 3.08014V4.35683C8.72614 4.71558 8.44225 5.01 8.08375 5.02306C7.01007 5.06218 5.38252 5.46557 4.04046 6.47184C3.16706 7.1267 2.40573 8.04155 1.99372 9.30772C3.23967 8.3838 5.20375 7.61874 8.05947 7.61874C8.42767 7.61874 8.72614 7.91722 8.72614 8.28541V9.54887L12.0454 6.31451L8.72614 3.08014Z" fill="black"/>
</mask>
<g mask="url(#mask0_926_1213)">
<rect id="&#240;&#159;&#142;&#168; tint" x="-1" y="-1.5" width="16" height="16" fill="white"/>
</g>
</g>
</svg>
