<svg width="19" height="19" viewBox="0 0 19 19" fill="none" xmlns="http://www.w3.org/2000/svg">
<g id="ic_search">
<mask id="mask0_1362_5919" style="mask-type:alpha" maskUnits="userSpaceOnUse" x="0" y="0" width="19" height="19">
<path id="ic_search_2" fill-rule="evenodd" clip-rule="evenodd" d="M0 8.0372C0 12.476 3.59838 16.0744 8.0372 16.0744C9.89451 16.0744 11.6047 15.4444 12.9657 14.3865L17.0792 18.5L18.5 17.0792L14.3865 12.9657C15.4444 11.6047 16.0744 9.89451 16.0744 8.0372C16.0744 3.59838 12.476 0 8.0372 0C3.59838 0 0 3.59838 0 8.0372ZM8.0372 14.0651C4.70808 14.0651 2.0093 11.3663 2.0093 8.0372C2.0093 4.70809 4.70808 2.0093 8.0372 2.0093C11.3663 2.0093 14.0651 4.70809 14.0651 8.0372C14.0651 11.3663 11.3663 14.0651 8.0372 14.0651Z" fill="black"/>
</mask>
<g mask="url(#mask0_1362_5919)">
<rect id="&#240;&#159;&#142;&#168; tint" x="-3" y="-3" width="24" height="24" fill="black"/>
</g>
</g>
</svg>
