<svg width="16" height="15" viewBox="0 0 16 15" fill="none" xmlns="http://www.w3.org/2000/svg">
<g id="ic_user">
<mask id="mask0_60_11055" style="mask-type:alpha" maskUnits="userSpaceOnUse" x="0" y="0" width="16" height="15">
<g id="ic_user_2">
<path fill-rule="evenodd" clip-rule="evenodd" d="M8 0.416992C5.92893 0.416992 4.25 2.09592 4.25 4.16699C4.25 6.23806 5.92893 7.91699 8 7.91699C10.0711 7.91699 11.75 6.23806 11.75 4.16699C11.75 2.09592 10.0711 0.416992 8 0.416992ZM5.91667 4.16699C5.91667 3.0164 6.84941 2.08366 8 2.08366C9.15059 2.08366 10.0833 3.0164 10.0833 4.16699C10.0833 5.31759 9.15059 6.25033 8 6.25033C6.84941 6.25033 5.91667 5.31759 5.91667 4.16699Z" fill="black"/>
<path d="M5.08333 9.16699C2.55203 9.16699 0.5 11.219 0.5 13.7503V15.0003H2.16667V13.7503C2.16667 12.1395 3.4725 10.8337 5.08333 10.8337H10.9167C12.5275 10.8337 13.8333 12.1395 13.8333 13.7503V15.0003H15.5V13.7503C15.5 11.219 13.448 9.16699 10.9167 9.16699H5.08333Z" fill="black"/>
</g>
</mask>
<g mask="url(#mask0_60_11055)">
<rect id="&#240;&#159;&#142;&#168; tint" x="-4" y="-4.5" width="24" height="24" fill="black"/>
</g>
</g>
</svg>
