<svg width="144" height="40" viewBox="0 0 144 40" fill="none" xmlns="http://www.w3.org/2000/svg">
<path d="M43.8637 0H42.7094V40H43.8637V0Z" fill="black"/>
<path fill-rule="evenodd" clip-rule="evenodd" d="M6.86535 27.2281L5.56062 31.1764H0L7.89049 8.82353H14.0413L21.9318 31.1764H16.3091L15.0044 27.2281H6.86535ZM13.6375 23.025L10.9349 14.8416L8.26327 23.025H13.6375Z" fill="black"/>
<path fill-rule="evenodd" clip-rule="evenodd" d="M80.8016 16.0198C80.8016 17.3147 80.5197 18.5034 79.9558 19.5861C79.392 20.6474 78.5261 21.5072 77.3581 22.1652C76.1901 22.8233 74.7402 23.1523 73.0084 23.1523H69.8065V31.1765H64.6413V8.82353H73.0084C74.7 8.82353 76.1297 9.13133 77.2977 9.74694C78.4657 10.3625 79.3416 11.2117 79.9256 12.2943C80.5096 13.3769 80.8016 14.6187 80.8016 16.0198ZM72.6157 18.8219C73.6025 18.8219 74.3375 18.5777 74.8208 18.0895C75.3041 17.6013 75.5457 16.9113 75.5457 16.0198C75.5457 15.1282 75.3041 14.4383 74.8208 13.9501C74.3375 13.4618 73.6025 13.2177 72.6157 13.2177H69.8065V18.8219H72.6157Z" fill="black"/>
<path d="M102.241 13.1859V17.7074H109.31V21.9105H102.241V26.8141H110.236V31.1765H96.9619V8.82353H110.236V13.1859H102.241Z" fill="black"/>
<path fill-rule="evenodd" clip-rule="evenodd" d="M137.647 31.1765L133.059 22.7384H131.77V31.1765H126.397V8.82353H135.415C137.154 8.82353 138.631 9.13133 139.846 9.74694C141.082 10.3625 142.004 11.2117 142.612 12.2943C143.219 13.3557 143.523 14.5444 143.523 15.8606C143.523 17.3465 143.104 18.6733 142.266 19.8408C141.449 21.0083 140.234 21.8362 138.621 22.3245L143.711 31.1765H137.647ZM131.77 18.8855H135.101C136.086 18.8855 136.819 18.6414 137.301 18.1532C137.804 17.6649 138.055 16.975 138.055 16.0835C138.055 15.2343 137.804 14.5657 137.301 14.0774C136.819 13.5892 136.086 13.3451 135.101 13.3451H131.77V18.8855Z" fill="black"/>
</svg>
